<svg xmlns="http://www.w3.org/2000/svg" viewBox="0 0 1392.408 1133.824" role="img" aria-labelledby="title desc">
<title id="title">STM32F405 主控顶板 · bottom</title>
<desc id="desc">由 Altium PcbDoc 中的板框、铜箔走线、过孔、丝印与元件坐标生成的只读预览。</desc>
<rect width="100%" height="100%" rx="18" fill="#101827"/>
<polygon points="96.028,921.912 96.028,166.912 167.529,96.028 1225.496,96.028 1296.380,166.912 1296.380,211.912 1296.380,211.912 1296.380,966.912 1225.495,1037.796 167.528,1037.796 96.028,966.912 96.028,921.912" fill="#18333d" stroke="#dbe3eb" stroke-width="2.2"/>
<g stroke="#9ea8b8" stroke-opacity="0.48" fill="none" stroke-linecap="round">
<line x1="386.042" y1="759.466" x2="422.233" y2="795.657" stroke-width="8.000"/>
<line x1="313.661" y1="831.848" x2="349.852" y2="868.039" stroke-width="8.000"/>
<line x1="349.852" y1="868.039" x2="375.438" y2="842.452" stroke-width="8.000"/>
<line x1="313.661" y1="831.848" x2="339.247" y2="806.262" stroke-width="8.000"/>
<line x1="396.651" y1="821.239" x2="422.233" y2="795.657" stroke-width="8.000"/>
<line x1="360.461" y1="785.049" x2="386.042" y2="759.466" stroke-width="8.000"/>
<line x1="361.587" y1="807.389" x2="374.316" y2="820.117" stroke-width="6.000"/>
<line x1="365.830" y1="815.874" x2="367.951" y2="813.753" stroke-width="6.000"/>
<line x1="367.951" y1="813.753" x2="370.073" y2="811.632" stroke-width="6.000"/>
<line x1="459.811" y1="808.183" x2="496.002" y2="771.992" stroke-width="8.000"/>
<line x1="532.192" y1="880.564" x2="568.383" y2="844.373" stroke-width="8.000"/>
<line x1="542.797" y1="818.787" x2="568.383" y2="844.373" stroke-width="8.000"/>
<line x1="506.606" y1="854.978" x2="532.192" y2="880.564" stroke-width="8.000"/>
<line x1="496.002" y1="771.992" x2="521.583" y2="797.574" stroke-width="8.000"/>
<line x1="459.811" y1="808.183" x2="485.393" y2="833.764" stroke-width="8.000"/>
<line x1="507.733" y1="832.638" x2="520.461" y2="819.909" stroke-width="6.000"/>
<line x1="514.097" y1="826.274" x2="516.218" y2="828.395" stroke-width="6.000"/>
<line x1="511.976" y1="824.152" x2="514.097" y2="826.274" stroke-width="6.000"/>
<line x1="630.171" y1="598.784" x2="661.768" y2="567.187" stroke-width="7.874"/>
<line x1="576.303" y1="652.652" x2="607.900" y2="621.055" stroke-width="7.874"/>
<line x1="674.156" y1="642.769" x2="705.753" y2="611.172" stroke-width="7.874"/>
<line x1="576.303" y1="652.652" x2="620.288" y2="696.637" stroke-width="7.874"/>
<line x1="661.768" y1="567.187" x2="705.753" y2="611.172" stroke-width="7.874"/>
<line x1="620.288" y1="696.637" x2="651.885" y2="665.041" stroke-width="7.874"/>
<line x1="671.747" y1="560.008" x2="707.937" y2="596.198" stroke-width="8.000"/>
<line x1="744.128" y1="487.627" x2="780.318" y2="523.817" stroke-width="8.000"/>
<line x1="718.542" y1="513.213" x2="744.128" y2="487.627" stroke-width="8.000"/>
<line x1="754.732" y1="549.403" x2="780.318" y2="523.817" stroke-width="8.000"/>
<line x1="671.747" y1="560.008" x2="697.329" y2="534.426" stroke-width="8.000"/>
<line x1="707.937" y1="596.198" x2="733.519" y2="570.617" stroke-width="8.000"/>
<line x1="719.664" y1="535.548" x2="732.392" y2="548.276" stroke-width="6.000"/>
<line x1="726.028" y1="541.912" x2="728.149" y2="539.791" stroke-width="6.000"/>
<line x1="723.907" y1="544.034" x2="726.028" y2="541.912" stroke-width="6.000"/>
<line x1="394.850" y1="397.506" x2="394.850" y2="346.325" stroke-width="8.000"/>
<line x1="497.212" y1="397.506" x2="497.212" y2="346.325" stroke-width="8.000"/>
<line x1="461.028" y1="346.325" x2="497.212" y2="346.325" stroke-width="8.000"/>
<line x1="461.028" y1="397.506" x2="497.212" y2="397.506" stroke-width="8.000"/>
<line x1="394.850" y1="346.325" x2="431.028" y2="346.325" stroke-width="8.000"/>
<line x1="394.850" y1="397.506" x2="431.028" y2="397.506" stroke-width="8.000"/>
<line x1="446.028" y1="380.912" x2="446.028" y2="362.912" stroke-width="6.000"/>
<line x1="446.028" y1="371.912" x2="449.028" y2="371.912" stroke-width="6.000"/>
<line x1="443.028" y1="371.912" x2="446.028" y2="371.912" stroke-width="6.000"/>
<line x1="395.438" y1="457.503" x2="395.438" y2="406.322" stroke-width="8.000"/>
<line x1="497.800" y1="406.322" x2="497.800" y2="457.503" stroke-width="8.000"/>
<line x1="461.616" y1="406.322" x2="497.800" y2="406.322" stroke-width="8.000"/>
<line x1="461.616" y1="457.503" x2="497.800" y2="457.503" stroke-width="8.000"/>
<line x1="395.438" y1="406.322" x2="431.616" y2="406.322" stroke-width="8.000"/>
<line x1="395.438" y1="457.503" x2="431.615" y2="457.503" stroke-width="8.000"/>
<line x1="446.615" y1="422.909" x2="446.616" y2="440.909" stroke-width="6.000"/>
<line x1="446.616" y1="431.909" x2="449.616" y2="431.909" stroke-width="6.000"/>
<line x1="443.616" y1="431.909" x2="446.616" y2="431.909" stroke-width="6.000"/>
<line x1="704.123" y1="786.194" x2="740.314" y2="750.003" stroke-width="8.000"/>
<line x1="631.742" y1="713.813" x2="667.933" y2="677.622" stroke-width="8.000"/>
<line x1="631.742" y1="713.813" x2="657.329" y2="739.399" stroke-width="8.000"/>
<line x1="667.933" y1="677.622" x2="693.519" y2="703.208" stroke-width="8.000"/>
<line x1="678.542" y1="760.612" x2="704.123" y2="786.194" stroke-width="8.000"/>
<line x1="714.732" y1="724.421" x2="740.314" y2="750.003" stroke-width="8.000"/>
<line x1="679.664" y1="738.276" x2="692.392" y2="725.548" stroke-width="6.000"/>
<line x1="683.907" y1="729.791" x2="686.028" y2="731.912" stroke-width="6.000"/>
<line x1="686.028" y1="731.912" x2="688.150" y2="734.034" stroke-width="6.000"/>
<line x1="461.742" y1="588.822" x2="497.933" y2="552.631" stroke-width="8.000"/>
<line x1="534.123" y1="661.203" x2="570.314" y2="625.012" stroke-width="8.000"/>
<line x1="544.728" y1="599.426" x2="570.314" y2="625.012" stroke-width="8.000"/>
<line x1="508.537" y1="635.617" x2="534.123" y2="661.203" stroke-width="8.000"/>
<line x1="497.933" y1="552.631" x2="523.515" y2="578.213" stroke-width="8.000"/>
<line x1="461.742" y1="588.822" x2="487.324" y2="614.403" stroke-width="8.000"/>
<line x1="509.664" y1="613.276" x2="522.392" y2="600.548" stroke-width="6.000"/>
<line x1="516.028" y1="606.912" x2="518.149" y2="609.034" stroke-width="6.000"/>
<line x1="513.907" y1="604.791" x2="516.028" y2="606.912" stroke-width="6.000"/>
<line x1="501.742" y1="538.821" x2="537.933" y2="502.631" stroke-width="8.000"/>
<line x1="574.123" y1="611.203" x2="610.314" y2="575.012" stroke-width="8.000"/>
<line x1="584.728" y1="549.426" x2="610.314" y2="575.012" stroke-width="8.000"/>
<line x1="548.537" y1="585.617" x2="574.123" y2="611.203" stroke-width="8.000"/>
<line x1="537.933" y1="502.631" x2="563.515" y2="528.213" stroke-width="8.000"/>
<line x1="501.742" y1="538.821" x2="527.324" y2="564.403" stroke-width="8.000"/>
<line x1="549.664" y1="563.276" x2="562.392" y2="550.548" stroke-width="6.000"/>
<line x1="556.028" y1="556.912" x2="558.149" y2="559.034" stroke-width="6.000"/>
<line x1="553.907" y1="554.791" x2="556.028" y2="556.912" stroke-width="6.000"/>
<line x1="704.119" y1="322.626" x2="740.309" y2="358.817" stroke-width="8.000"/>
<line x1="631.738" y1="395.008" x2="667.929" y2="431.198" stroke-width="8.000"/>
<line x1="667.929" y1="431.198" x2="693.515" y2="405.612" stroke-width="8.000"/>
<line x1="631.738" y1="395.008" x2="657.324" y2="369.422" stroke-width="8.000"/>
<line x1="714.728" y1="384.399" x2="740.309" y2="358.817" stroke-width="8.000"/>
<line x1="678.537" y1="348.208" x2="704.119" y2="322.626" stroke-width="8.000"/>
<line x1="679.664" y1="370.548" x2="692.392" y2="383.276" stroke-width="6.000"/>
<line x1="683.907" y1="379.034" x2="686.028" y2="376.912" stroke-width="6.000"/>
<line x1="686.028" y1="376.912" x2="688.149" y2="374.791" stroke-width="6.000"/>
<line x1="749.123" y1="741.194" x2="785.314" y2="705.003" stroke-width="8.000"/>
<line x1="676.742" y1="668.813" x2="712.933" y2="632.622" stroke-width="8.000"/>
<line x1="676.742" y1="668.813" x2="702.329" y2="694.399" stroke-width="8.000"/>
<line x1="712.933" y1="632.622" x2="738.519" y2="658.208" stroke-width="8.000"/>
<line x1="723.542" y1="715.612" x2="749.123" y2="741.194" stroke-width="8.000"/>
<line x1="759.732" y1="679.422" x2="785.314" y2="705.003" stroke-width="8.000"/>
<line x1="724.664" y1="693.276" x2="737.392" y2="680.548" stroke-width="6.000"/>
<line x1="728.907" y1="684.791" x2="731.028" y2="686.912" stroke-width="6.000"/>
<line x1="731.028" y1="686.912" x2="733.149" y2="689.034" stroke-width="6.000"/>
<line x1="721.303" y1="606.172" x2="752.900" y2="637.769" stroke-width="7.874"/>
<line x1="775.171" y1="660.041" x2="806.768" y2="691.638" stroke-width="7.874"/>
<line x1="765.288" y1="562.187" x2="796.885" y2="593.784" stroke-width="7.874"/>
<line x1="806.768" y1="691.638" x2="850.753" y2="647.653" stroke-width="7.874"/>
<line x1="721.303" y1="606.172" x2="765.288" y2="562.187" stroke-width="7.874"/>
<line x1="819.156" y1="616.055" x2="850.753" y2="647.653" stroke-width="7.874"/>
<line x1="536.303" y1="491.172" x2="567.900" y2="522.769" stroke-width="7.874"/>
<line x1="590.171" y1="545.041" x2="621.768" y2="576.638" stroke-width="7.874"/>
<line x1="580.288" y1="447.187" x2="611.885" y2="478.784" stroke-width="7.874"/>
<line x1="621.768" y1="576.638" x2="665.753" y2="532.653" stroke-width="7.874"/>
<line x1="536.303" y1="491.172" x2="580.288" y2="447.187" stroke-width="7.874"/>
<line x1="634.156" y1="501.055" x2="665.753" y2="532.653" stroke-width="7.874"/>
<line x1="706.742" y1="413.822" x2="742.933" y2="377.631" stroke-width="8.000"/>
<line x1="779.123" y1="486.203" x2="815.314" y2="450.012" stroke-width="8.000"/>
<line x1="789.728" y1="424.426" x2="815.314" y2="450.012" stroke-width="8.000"/>
<line x1="753.537" y1="460.617" x2="779.123" y2="486.203" stroke-width="8.000"/>
<line x1="742.933" y1="377.631" x2="768.515" y2="403.213" stroke-width="8.000"/>
<line x1="706.742" y1="413.822" x2="732.324" y2="439.403" stroke-width="8.000"/>
<line x1="754.664" y1="438.276" x2="767.392" y2="425.548" stroke-width="6.000"/>
<line x1="761.028" y1="431.912" x2="763.149" y2="434.034" stroke-width="6.000"/>
<line x1="758.907" y1="429.791" x2="761.028" y2="431.912" stroke-width="6.000"/>
<line x1="854.124" y1="631.194" x2="890.314" y2="595.003" stroke-width="8.000"/>
<line x1="781.742" y1="558.813" x2="817.933" y2="522.622" stroke-width="8.000"/>
<line x1="781.742" y1="558.813" x2="807.329" y2="584.399" stroke-width="8.000"/>
<line x1="817.933" y1="522.622" x2="843.519" y2="548.208" stroke-width="8.000"/>
<line x1="828.542" y1="605.612" x2="854.124" y2="631.194" stroke-width="8.000"/>
<line x1="864.732" y1="569.422" x2="890.314" y2="595.003" stroke-width="8.000"/>
<line x1="829.664" y1="583.276" x2="842.392" y2="570.548" stroke-width="6.000"/>
<line x1="833.907" y1="574.791" x2="836.028" y2="576.912" stroke-width="6.000"/>
<line x1="836.028" y1="576.912" x2="838.149" y2="579.034" stroke-width="6.000"/>
<line x1="1093.922" y1="836.912" x2="1213.922" y2="836.912" stroke-width="10.000"/>
<line x1="1093.922" y1="336.912" x2="1213.922" y2="336.912" stroke-width="10.000"/>
<line x1="291.162" y1="348.245" x2="291.162" y2="336.912" stroke-width="10.000"/>
<line x1="291.162" y1="395.579" x2="291.162" y2="398.245" stroke-width="10.000"/>
<line x1="291.162" y1="448.246" x2="291.162" y2="445.579" stroke-width="10.000"/>
<line x1="291.162" y1="498.245" x2="291.162" y2="495.579" stroke-width="10.000"/>
<line x1="291.162" y1="545.579" x2="291.162" y2="548.245" stroke-width="10.000"/>
<line x1="291.162" y1="598.245" x2="291.162" y2="595.579" stroke-width="10.000"/>
<line x1="291.162" y1="645.579" x2="291.162" y2="648.245" stroke-width="10.000"/>
<line x1="291.162" y1="695.579" x2="291.162" y2="698.245" stroke-width="10.000"/>
<line x1="171.162" y1="756.912" x2="171.162" y2="745.579" stroke-width="10.000"/>
<line x1="171.162" y1="756.912" x2="291.162" y2="756.913" stroke-width="10.000"/>
<line x1="291.162" y1="756.913" x2="291.162" y2="745.579" stroke-width="10.000"/>
<line x1="171.162" y1="695.579" x2="171.162" y2="698.245" stroke-width="10.000"/>
<line x1="171.162" y1="648.245" x2="171.162" y2="645.579" stroke-width="10.000"/>
<line x1="171.162" y1="598.245" x2="171.162" y2="595.579" stroke-width="10.000"/>
<line x1="171.162" y1="545.579" x2="171.162" y2="548.245" stroke-width="10.000"/>
<line x1="171.162" y1="498.245" x2="171.162" y2="495.579" stroke-width="10.000"/>
<line x1="171.162" y1="445.579" x2="171.162" y2="448.245" stroke-width="10.000"/>
<line x1="171.162" y1="395.579" x2="171.162" y2="398.245" stroke-width="10.000"/>
<line x1="171.162" y1="336.912" x2="291.162" y2="336.912" stroke-width="10.000"/>
<line x1="171.162" y1="348.245" x2="171.162" y2="336.912" stroke-width="10.000"/>
</g>
<g stroke="#4f8fe8" stroke-opacity="0.86" fill="none" stroke-linecap="round">
<line x1="824.355" y1="853.585" x2="847.881" y2="830.060" stroke-width="8.000"/>
<line x1="847.881" y1="830.060" x2="847.881" y2="733.765" stroke-width="8.000"/>
<line x1="824.355" y1="853.585" x2="824.355" y2="853.585" stroke-width="8.000"/>
<line x1="770.496" y1="907.445" x2="824.355" y2="853.585" stroke-width="8.000"/>
<line x1="819.119" y1="705.003" x2="847.881" y2="733.765" stroke-width="8.000"/>
<line x1="146.028" y1="361.345" x2="156.595" y2="371.912" stroke-width="8.000"/>
<line x1="146.028" y1="286.912" x2="164.338" y2="268.603" stroke-width="8.000"/>
<line x1="156.595" y1="371.912" x2="160.296" y2="371.912" stroke-width="8.000"/>
<line x1="146.028" y1="361.345" x2="146.028" y2="286.912" stroke-width="8.000"/>
<line x1="961.028" y1="511.912" x2="1086.710" y2="511.912" stroke-width="8.000"/>
<line x1="909.564" y1="460.448" x2="961.028" y2="511.912" stroke-width="8.000"/>
<line x1="909.564" y1="460.448" x2="909.564" y2="381.504" stroke-width="8.000"/>
<line x1="1219.134" y1="711.912" x2="1230.882" y2="723.660" stroke-width="8.000"/>
<line x1="1282.438" y1="723.660" x2="1283.649" y2="724.872" stroke-width="8.000"/>
<line x1="1230.882" y1="723.660" x2="1282.438" y2="723.660" stroke-width="8.000"/>
<line x1="716.028" y1="256.912" x2="861.028" y2="256.912" stroke-width="8.000"/>
<line x1="671.028" y1="301.912" x2="716.028" y2="256.912" stroke-width="8.000"/>
<line x1="490.444" y1="301.912" x2="671.028" y2="301.912" stroke-width="8.000"/>
<line x1="420.441" y1="371.916" x2="490.444" y2="301.912" stroke-width="8.000"/>
<line x1="471.622" y1="431.325" x2="472.209" y2="431.912" stroke-width="8.000"/>
<line x1="471.622" y1="431.325" x2="471.622" y2="371.916" stroke-width="8.000"/>
<line x1="401.028" y1="571.912" x2="454.128" y2="625.012" stroke-width="8.000"/>
<line x1="454.128" y1="625.012" x2="534.123" y2="625.012" stroke-width="8.000"/>
<line x1="1216.028" y1="851.912" x2="1216.028" y2="815.018" stroke-width="8.000"/>
<line x1="1216.028" y1="815.018" x2="1219.134" y2="811.912" stroke-width="8.000"/>
<line x1="960.077" y1="760.961" x2="1011.028" y2="811.912" stroke-width="8.000"/>
<line x1="1011.028" y1="811.912" x2="1086.710" y2="811.912" stroke-width="8.000"/>
<line x1="924.799" y1="760.961" x2="960.077" y2="760.961" stroke-width="8.000"/>
<line x1="987.527" y1="750.164" x2="1074.962" y2="750.164" stroke-width="8.000"/>
<line x1="979.275" y1="741.912" x2="987.527" y2="750.164" stroke-width="8.000"/>
<line x1="1074.962" y1="750.164" x2="1086.710" y2="761.912" stroke-width="8.000"/>
<line x1="976.028" y1="741.912" x2="979.275" y2="741.912" stroke-width="8.000"/>
<line x1="1215.755" y1="765.292" x2="1219.134" y2="761.912" stroke-width="8.000"/>
<line x1="1207.319" y1="765.292" x2="1215.755" y2="765.292" stroke-width="8.000"/>
<line x1="1081.710" y1="716.912" x2="1086.710" y2="711.912" stroke-width="8.000"/>
<line x1="981.028" y1="716.912" x2="1081.710" y2="716.912" stroke-width="8.000"/>
<line x1="951.028" y1="686.912" x2="981.028" y2="716.912" stroke-width="8.000"/>
<line x1="1024.280" y1="650.164" x2="1074.962" y2="650.164" stroke-width="8.000"/>
<line x1="1074.962" y1="650.164" x2="1086.710" y2="661.912" stroke-width="8.000"/>
<line x1="1016.028" y1="641.912" x2="1024.280" y2="650.164" stroke-width="8.000"/>
<line x1="1016.028" y1="641.912" x2="1016.028" y2="581.912" stroke-width="8.000"/>
<line x1="871.185" y1="541.255" x2="871.185" y2="492.264" stroke-width="8.000"/>
<line x1="891.842" y1="561.912" x2="1086.710" y2="561.912" stroke-width="8.000"/>
<line x1="871.185" y1="541.255" x2="891.842" y2="561.912" stroke-width="8.000"/>
<line x1="893.865" y1="359.616" x2="900.349" y2="359.616" stroke-width="8.000"/>
<line x1="902.255" y1="357.711" x2="921.826" y2="357.711" stroke-width="8.000"/>
<line x1="921.826" y1="357.711" x2="1026.028" y2="461.912" stroke-width="8.000"/>
<line x1="900.349" y1="359.616" x2="902.255" y2="357.711" stroke-width="8.000"/>
<line x1="891.569" y1="361.912" x2="893.865" y2="359.616" stroke-width="8.000"/>
<line x1="1026.028" y1="461.912" x2="1086.710" y2="461.912" stroke-width="8.000"/>
<line x1="167.528" y1="216.912" x2="222.528" y2="161.912" stroke-width="8.000"/>
<line x1="222.528" y1="161.912" x2="356.028" y2="161.912" stroke-width="8.000"/>
<line x1="356.028" y1="161.912" x2="411.028" y2="216.912" stroke-width="8.000"/>
<line x1="411.028" y1="216.912" x2="470.861" y2="216.912" stroke-width="8.000"/>
<line x1="476.864" y1="210.910" x2="476.864" y2="186.077" stroke-width="8.000"/>
<line x1="470.861" y1="216.912" x2="476.864" y2="210.910" stroke-width="8.000"/>
<line x1="476.864" y1="186.077" x2="496.028" y2="166.912" stroke-width="8.000"/>
<line x1="496.028" y1="166.912" x2="871.894" y2="166.912" stroke-width="8.000"/>
<line x1="871.894" y1="166.912" x2="921.894" y2="216.912" stroke-width="8.000"/>
<line x1="921.894" y1="216.912" x2="1077.528" y2="216.912" stroke-width="8.000"/>
<line x1="921.894" y1="216.912" x2="921.894" y2="216.912" stroke-width="8.000"/>
<line x1="1107.528" y1="246.912" x2="1171.028" y2="246.912" stroke-width="8.000"/>
<line x1="1077.528" y1="216.912" x2="1107.528" y2="246.912" stroke-width="8.000"/>
<line x1="1171.028" y1="246.912" x2="1219.134" y2="295.018" stroke-width="8.000"/>
<line x1="1219.134" y1="361.912" x2="1219.134" y2="295.018" stroke-width="8.000"/>
<line x1="1161.028" y1="411.912" x2="1219.134" y2="411.912" stroke-width="8.000"/>
<line x1="1151.028" y1="401.912" x2="1161.028" y2="411.912" stroke-width="8.000"/>
<line x1="1151.028" y1="401.912" x2="1151.028" y2="311.912" stroke-width="8.000"/>
<line x1="1102.309" y1="263.194" x2="1151.028" y2="311.912" stroke-width="8.000"/>
<line x1="896.685" y1="263.194" x2="1102.309" y2="263.194" stroke-width="8.000"/>
<line x1="869.126" y1="285.010" x2="996.028" y2="411.912" stroke-width="8.000"/>
<line x1="996.028" y1="411.912" x2="1086.710" y2="411.912" stroke-width="8.000"/>
<line x1="835.991" y1="285.010" x2="869.126" y2="285.010" stroke-width="8.000"/>
<line x1="164.338" y1="268.603" x2="605.409" y2="268.603" stroke-width="8.000"/>
<line x1="246.028" y1="362.809" x2="292.925" y2="362.809" stroke-width="8.000"/>
<line x1="292.925" y1="362.809" x2="302.028" y2="371.912" stroke-width="8.000"/>
<line x1="194.512" y1="311.293" x2="246.028" y2="362.809" stroke-width="8.000"/>
<line x1="236.028" y1="421.912" x2="302.028" y2="421.912" stroke-width="8.000"/>
<line x1="160.296" y1="471.912" x2="216.028" y2="471.912" stroke-width="8.000"/>
<line x1="160.296" y1="471.912" x2="160.296" y2="471.912" stroke-width="8.000"/>
<line x1="312.595" y1="461.346" x2="346.595" y2="461.346" stroke-width="8.000"/>
<line x1="302.028" y1="471.913" x2="312.595" y2="461.346" stroke-width="8.000"/>
<line x1="346.595" y1="461.346" x2="349.028" y2="458.912" stroke-width="8.000"/>
<line x1="349.028" y1="458.912" x2="369.028" y2="458.912" stroke-width="8.000"/>
<line x1="369.028" y1="458.912" x2="371.028" y2="456.912" stroke-width="8.000"/>
<line x1="165.296" y1="516.912" x2="231.028" y2="516.912" stroke-width="8.000"/>
<line x1="160.296" y1="521.912" x2="165.296" y2="516.912" stroke-width="8.000"/>
<line x1="307.028" y1="516.912" x2="371.028" y2="516.912" stroke-width="8.000"/>
<line x1="302.028" y1="521.912" x2="307.028" y2="516.912" stroke-width="8.000"/>
<line x1="309.964" y1="906.380" x2="315.496" y2="906.380" stroke-width="8.000"/>
<line x1="160.296" y1="756.712" x2="309.964" y2="906.380" stroke-width="8.000"/>
<line x1="160.296" y1="756.712" x2="160.296" y2="721.912" stroke-width="8.000"/>
<line x1="315.496" y1="911.912" x2="315.496" y2="906.380" stroke-width="8.000"/>
<line x1="302.028" y1="571.912" x2="366.028" y2="571.912" stroke-width="8.000"/>
<line x1="302.028" y1="571.912" x2="302.028" y2="571.912" stroke-width="8.000"/>
<line x1="581.248" y1="722.132" x2="629.827" y2="722.132" stroke-width="8.000"/>
<line x1="531.028" y1="671.912" x2="581.248" y2="722.132" stroke-width="8.000"/>
<line x1="302.028" y1="671.912" x2="531.028" y2="671.912" stroke-width="8.000"/>
<line x1="160.296" y1="671.912" x2="189.036" y2="671.912" stroke-width="8.000"/>
<line x1="189.036" y1="671.912" x2="226.028" y2="708.904" stroke-width="8.000"/>
<line x1="226.028" y1="711.912" x2="226.028" y2="708.904" stroke-width="8.000"/>
<line x1="770.496" y1="911.912" x2="770.496" y2="907.445" stroke-width="8.000"/>
<line x1="700.496" y1="981.912" x2="770.496" y2="911.912" stroke-width="8.000"/>
<line x1="501.028" y1="981.912" x2="700.496" y2="981.912" stroke-width="8.000"/>
<line x1="411.028" y1="891.912" x2="501.028" y2="981.912" stroke-width="8.000"/>
<line x1="376.028" y1="891.912" x2="411.028" y2="891.912" stroke-width="8.000"/>
<line x1="356.028" y1="911.912" x2="376.028" y2="891.912" stroke-width="8.000"/>
<line x1="315.496" y1="911.912" x2="356.028" y2="911.912" stroke-width="8.000"/>
<line x1="167.796" y1="968.680" x2="196.028" y2="996.912" stroke-width="8.000"/>
<line x1="167.796" y1="968.680" x2="167.796" y2="911.912" stroke-width="8.000"/>
<line x1="196.028" y1="996.912" x2="326.028" y2="996.912" stroke-width="8.000"/>
<line x1="326.028" y1="996.912" x2="396.028" y2="926.912" stroke-width="8.000"/>
<line x1="1077.796" y1="990.145" x2="1077.796" y2="911.913" stroke-width="8.000"/>
<line x1="1061.028" y1="1006.912" x2="1077.796" y2="990.145" stroke-width="8.000"/>
<line x1="876.028" y1="1006.912" x2="1061.028" y2="1006.912" stroke-width="8.000"/>
<line x1="851.028" y1="981.912" x2="876.028" y2="1006.912" stroke-width="8.000"/>
<line x1="851.028" y1="981.912" x2="851.028" y2="916.912" stroke-width="8.000"/>
<line x1="749.124" y1="705.003" x2="819.119" y2="705.003" stroke-width="8.000"/>
<line x1="662.464" y1="605.481" x2="707.937" y2="560.008" stroke-width="8.000"/>
<line x1="662.464" y1="610.476" x2="662.464" y2="605.481" stroke-width="8.000"/>
<line x1="704.124" y1="750.003" x2="749.124" y2="705.003" stroke-width="8.000"/>
<line x1="704.124" y1="750.003" x2="704.124" y2="710.306" stroke-width="8.000"/>
<line x1="670.730" y1="676.912" x2="704.124" y2="710.306" stroke-width="8.000"/>
<line x1="663.390" y1="676.912" x2="670.730" y2="676.912" stroke-width="8.000"/>
<line x1="639.826" y1="653.348" x2="663.390" y2="676.912" stroke-width="8.000"/>
<line x1="619.592" y1="653.348" x2="639.826" y2="653.348" stroke-width="8.000"/>
<line x1="547.937" y1="588.822" x2="612.464" y2="653.348" stroke-width="8.000"/>
<line x1="612.464" y1="653.348" x2="619.592" y2="653.348" stroke-width="8.000"/>
<line x1="497.933" y1="588.822" x2="547.937" y2="588.822" stroke-width="8.000"/>
<line x1="497.933" y1="588.822" x2="537.933" y2="548.822" stroke-width="8.000"/>
<line x1="537.933" y1="548.822" x2="537.933" y2="538.822" stroke-width="8.000"/>
<line x1="421.028" y1="431.912" x2="527.937" y2="538.822" stroke-width="8.000"/>
<line x1="527.937" y1="538.822" x2="537.933" y2="538.822" stroke-width="8.000"/>
<line x1="421.028" y1="431.912" x2="421.028" y2="372.503" stroke-width="8.000"/>
<line x1="420.441" y1="371.916" x2="421.028" y2="372.503" stroke-width="8.000"/>
<line x1="704.119" y1="358.817" x2="704.119" y2="313.822" stroke-width="8.000"/>
<line x1="704.119" y1="313.822" x2="706.028" y2="311.912" stroke-width="8.000"/>
</g>
<g aria-label="vias">
<circle cx="1283.649" cy="724.872" r="10.000" fill="#d8b763" stroke="#f4d78e" stroke-width="0.8"/>
<circle cx="1283.649" cy="724.872" r="6.000" fill="#101827"/>
<circle cx="861.028" cy="256.912" r="10.000" fill="#d8b763" stroke="#f4d78e" stroke-width="0.8"/>
<circle cx="861.028" cy="256.912" r="6.000" fill="#101827"/>
<circle cx="415.325" cy="463.120" r="10.000" fill="#d8b763" stroke="#f4d78e" stroke-width="0.8"/>
<circle cx="415.325" cy="463.120" r="6.000" fill="#101827"/>
<circle cx="447.285" cy="856.897" r="10.000" fill="#d8b763" stroke="#f4d78e" stroke-width="0.8"/>
<circle cx="447.285" cy="856.897" r="6.000" fill="#101827"/>
<circle cx="434.757" cy="746.939" r="10.000" fill="#d8b763" stroke="#f4d78e" stroke-width="0.8"/>
<circle cx="434.757" cy="746.939" r="6.000" fill="#101827"/>
<circle cx="1086.710" cy="361.912" r="10.000" fill="#d8b763" stroke="#f4d78e" stroke-width="0.8"/>
<circle cx="1086.710" cy="361.912" r="6.000" fill="#101827"/>
<circle cx="349.852" cy="831.848" r="10.000" fill="#d8b763" stroke="#f4d78e" stroke-width="0.8"/>
<circle cx="349.852" cy="831.848" r="6.000" fill="#101827"/>
<circle cx="532.192" cy="844.373" r="10.000" fill="#d8b763" stroke="#f4d78e" stroke-width="0.8"/>
<circle cx="532.192" cy="844.373" r="6.000" fill="#101827"/>
<circle cx="302.028" cy="721.912" r="10.000" fill="#d8b763" stroke="#f4d78e" stroke-width="0.8"/>
<circle cx="302.028" cy="721.912" r="6.000" fill="#101827"/>
<circle cx="401.028" cy="571.912" r="10.000" fill="#d8b763" stroke="#f4d78e" stroke-width="0.8"/>
<circle cx="401.028" cy="571.912" r="6.000" fill="#101827"/>
<circle cx="667.928" cy="395.007" r="10.000" fill="#d8b763" stroke="#f4d78e" stroke-width="0.8"/>
<circle cx="667.928" cy="395.007" r="6.000" fill="#101827"/>
<circle cx="574.123" cy="575.012" r="10.000" fill="#d8b763" stroke="#f4d78e" stroke-width="0.8"/>
<circle cx="574.123" cy="575.012" r="6.000" fill="#101827"/>
<circle cx="622.464" cy="533.348" r="10.000" fill="#d8b763" stroke="#f4d78e" stroke-width="0.8"/>
<circle cx="622.464" cy="533.348" r="6.000" fill="#101827"/>
<circle cx="667.933" cy="713.812" r="10.000" fill="#d8b763" stroke="#f4d78e" stroke-width="0.8"/>
<circle cx="667.933" cy="713.812" r="6.000" fill="#101827"/>
<circle cx="712.933" cy="668.813" r="10.000" fill="#d8b763" stroke="#f4d78e" stroke-width="0.8"/>
<circle cx="712.933" cy="668.813" r="6.000" fill="#101827"/>
<circle cx="817.933" cy="558.813" r="10.000" fill="#d8b763" stroke="#f4d78e" stroke-width="0.8"/>
<circle cx="817.933" cy="558.813" r="6.000" fill="#101827"/>
<circle cx="764.592" cy="605.476" r="10.000" fill="#d8b763" stroke="#f4d78e" stroke-width="0.8"/>
<circle cx="764.592" cy="605.476" r="6.000" fill="#101827"/>
<circle cx="744.128" cy="523.817" r="10.000" fill="#d8b763" stroke="#f4d78e" stroke-width="0.8"/>
<circle cx="744.128" cy="523.817" r="6.000" fill="#101827"/>
<circle cx="1216.028" cy="851.912" r="10.000" fill="#d8b763" stroke="#f4d78e" stroke-width="0.8"/>
<circle cx="1216.028" cy="851.912" r="6.000" fill="#101827"/>
<circle cx="901.028" cy="741.912" r="10.000" fill="#d8b763" stroke="#f4d78e" stroke-width="0.8"/>
<circle cx="901.028" cy="741.912" r="6.000" fill="#101827"/>
<circle cx="924.799" cy="760.961" r="10.000" fill="#d8b763" stroke="#f4d78e" stroke-width="0.8"/>
<circle cx="924.799" cy="760.961" r="6.000" fill="#101827"/>
<circle cx="976.028" cy="741.912" r="10.000" fill="#d8b763" stroke="#f4d78e" stroke-width="0.8"/>
<circle cx="976.028" cy="741.912" r="6.000" fill="#101827"/>
<circle cx="1207.319" cy="765.292" r="10.000" fill="#d8b763" stroke="#f4d78e" stroke-width="0.8"/>
<circle cx="1207.319" cy="765.292" r="6.000" fill="#101827"/>
<circle cx="941.028" cy="711.912" r="10.000" fill="#d8b763" stroke="#f4d78e" stroke-width="0.8"/>
<circle cx="941.028" cy="711.912" r="6.000" fill="#101827"/>
<circle cx="986.451" cy="668.756" r="10.000" fill="#d8b763" stroke="#f4d78e" stroke-width="0.8"/>
<circle cx="986.451" cy="668.756" r="6.000" fill="#101827"/>
<circle cx="951.028" cy="686.912" r="10.000" fill="#d8b763" stroke="#f4d78e" stroke-width="0.8"/>
<circle cx="951.028" cy="686.912" r="6.000" fill="#101827"/>
<circle cx="1261.028" cy="651.912" r="10.000" fill="#d8b763" stroke="#f4d78e" stroke-width="0.8"/>
<circle cx="1261.028" cy="651.912" r="6.000" fill="#101827"/>
<circle cx="1091.028" cy="611.912" r="10.000" fill="#d8b763" stroke="#f4d78e" stroke-width="0.8"/>
<circle cx="1091.028" cy="611.912" r="6.000" fill="#101827"/>
<circle cx="951.028" cy="437.187" r="10.000" fill="#d8b763" stroke="#f4d78e" stroke-width="0.8"/>
<circle cx="951.028" cy="437.187" r="6.000" fill="#101827"/>
<circle cx="911.980" cy="531.912" r="10.000" fill="#d8b763" stroke="#f4d78e" stroke-width="0.8"/>
<circle cx="911.980" cy="531.912" r="6.000" fill="#101827"/>
<circle cx="1016.028" cy="581.912" r="10.000" fill="#d8b763" stroke="#f4d78e" stroke-width="0.8"/>
<circle cx="1016.028" cy="581.912" r="6.000" fill="#101827"/>
<circle cx="1216.028" cy="611.912" r="10.000" fill="#d8b763" stroke="#f4d78e" stroke-width="0.8"/>
<circle cx="1216.028" cy="611.912" r="6.000" fill="#101827"/>
<circle cx="871.185" cy="492.264" r="10.000" fill="#d8b763" stroke="#f4d78e" stroke-width="0.8"/>
<circle cx="871.185" cy="492.264" r="6.000" fill="#101827"/>
<circle cx="1226.028" cy="556.912" r="10.000" fill="#d8b763" stroke="#f4d78e" stroke-width="0.8"/>
<circle cx="1226.028" cy="556.912" r="6.000" fill="#101827"/>
<circle cx="1221.028" cy="511.912" r="10.000" fill="#d8b763" stroke="#f4d78e" stroke-width="0.8"/>
<circle cx="1221.028" cy="511.912" r="6.000" fill="#101827"/>
<circle cx="909.564" cy="381.504" r="10.000" fill="#d8b763" stroke="#f4d78e" stroke-width="0.8"/>
<circle cx="909.564" cy="381.504" r="6.000" fill="#101827"/>
<circle cx="891.569" cy="361.912" r="10.000" fill="#d8b763" stroke="#f4d78e" stroke-width="0.8"/>
<circle cx="891.569" cy="361.912" r="6.000" fill="#101827"/>
<circle cx="896.685" cy="263.194" r="10.000" fill="#d8b763" stroke="#f4d78e" stroke-width="0.8"/>
<circle cx="896.685" cy="263.194" r="6.000" fill="#101827"/>
<circle cx="574.595" cy="663.117" r="10.000" fill="#d8b763" stroke="#f4d78e" stroke-width="0.8"/>
<circle cx="574.595" cy="663.117" r="6.000" fill="#101827"/>
<circle cx="594.302" cy="681.342" r="10.000" fill="#d8b763" stroke="#f4d78e" stroke-width="0.8"/>
<circle cx="594.302" cy="681.342" r="6.000" fill="#101827"/>
<circle cx="835.991" cy="285.010" r="10.000" fill="#d8b763" stroke="#f4d78e" stroke-width="0.8"/>
<circle cx="835.991" cy="285.010" r="6.000" fill="#101827"/>
<circle cx="605.409" cy="268.603" r="10.000" fill="#d8b763" stroke="#f4d78e" stroke-width="0.8"/>
<circle cx="605.409" cy="268.603" r="6.000" fill="#101827"/>
<circle cx="194.512" cy="311.293" r="10.000" fill="#d8b763" stroke="#f4d78e" stroke-width="0.8"/>
<circle cx="194.512" cy="311.293" r="6.000" fill="#101827"/>
<circle cx="161.028" cy="421.912" r="10.000" fill="#d8b763" stroke="#f4d78e" stroke-width="0.8"/>
<circle cx="161.028" cy="421.912" r="6.000" fill="#101827"/>
<circle cx="236.028" cy="421.912" r="10.000" fill="#d8b763" stroke="#f4d78e" stroke-width="0.8"/>
<circle cx="236.028" cy="421.912" r="6.000" fill="#101827"/>
<circle cx="216.028" cy="471.912" r="10.000" fill="#d8b763" stroke="#f4d78e" stroke-width="0.8"/>
<circle cx="216.028" cy="471.912" r="6.000" fill="#101827"/>
<circle cx="371.028" cy="456.912" r="10.000" fill="#d8b763" stroke="#f4d78e" stroke-width="0.8"/>
<circle cx="371.028" cy="456.912" r="6.000" fill="#101827"/>
<circle cx="231.028" cy="516.912" r="10.000" fill="#d8b763" stroke="#f4d78e" stroke-width="0.8"/>
<circle cx="231.028" cy="516.912" r="6.000" fill="#101827"/>
<circle cx="446.028" cy="401.912" r="10.000" fill="#d8b763" stroke="#f4d78e" stroke-width="0.8"/>
<circle cx="446.028" cy="401.912" r="6.000" fill="#101827"/>
<circle cx="371.028" cy="516.912" r="10.000" fill="#d8b763" stroke="#f4d78e" stroke-width="0.8"/>
<circle cx="371.028" cy="516.912" r="6.000" fill="#101827"/>
<circle cx="363.427" cy="488.565" r="10.000" fill="#d8b763" stroke="#f4d78e" stroke-width="0.8"/>
<circle cx="363.427" cy="488.565" r="6.000" fill="#101827"/>
<circle cx="366.028" cy="571.912" r="10.000" fill="#d8b763" stroke="#f4d78e" stroke-width="0.8"/>
<circle cx="366.028" cy="571.912" r="6.000" fill="#101827"/>
<circle cx="226.028" cy="711.912" r="10.000" fill="#d8b763" stroke="#f4d78e" stroke-width="0.8"/>
<circle cx="226.028" cy="711.912" r="6.000" fill="#101827"/>
<circle cx="301.028" cy="621.912" r="10.000" fill="#d8b763" stroke="#f4d78e" stroke-width="0.8"/>
<circle cx="301.028" cy="621.912" r="6.000" fill="#101827"/>
<circle cx="156.028" cy="621.912" r="10.000" fill="#d8b763" stroke="#f4d78e" stroke-width="0.8"/>
<circle cx="156.028" cy="621.912" r="6.000" fill="#101827"/>
<circle cx="629.827" cy="722.132" r="10.000" fill="#d8b763" stroke="#f4d78e" stroke-width="0.8"/>
<circle cx="629.827" cy="722.132" r="6.000" fill="#101827"/>
<circle cx="617.816" cy="698.281" r="10.000" fill="#d8b763" stroke="#f4d78e" stroke-width="0.8"/>
<circle cx="617.816" cy="698.281" r="6.000" fill="#101827"/>
<circle cx="396.028" cy="926.912" r="10.000" fill="#d8b763" stroke="#f4d78e" stroke-width="0.8"/>
<circle cx="396.028" cy="926.912" r="6.000" fill="#101827"/>
<circle cx="996.028" cy="921.912" r="10.000" fill="#d8b763" stroke="#f4d78e" stroke-width="0.8"/>
<circle cx="996.028" cy="921.912" r="6.000" fill="#101827"/>
<circle cx="926.028" cy="921.912" r="10.000" fill="#d8b763" stroke="#f4d78e" stroke-width="0.8"/>
<circle cx="926.028" cy="921.912" r="6.000" fill="#101827"/>
<circle cx="851.028" cy="916.912" r="10.000" fill="#d8b763" stroke="#f4d78e" stroke-width="0.8"/>
<circle cx="851.028" cy="916.912" r="6.000" fill="#101827"/>
<circle cx="661.028" cy="611.912" r="10.000" fill="#d8b763" stroke="#f4d78e" stroke-width="0.8"/>
<circle cx="661.028" cy="611.912" r="6.000" fill="#101827"/>
<circle cx="496.002" cy="808.183" r="10.000" fill="#d8b763" stroke="#f4d78e" stroke-width="0.8"/>
<circle cx="496.002" cy="808.183" r="6.000" fill="#101827"/>
<circle cx="386.042" cy="795.657" r="10.000" fill="#d8b763" stroke="#f4d78e" stroke-width="0.8"/>
<circle cx="386.042" cy="795.657" r="6.000" fill="#101827"/>
<circle cx="706.028" cy="311.912" r="10.000" fill="#d8b763" stroke="#f4d78e" stroke-width="0.8"/>
<circle cx="706.028" cy="311.912" r="6.000" fill="#101827"/>
<circle cx="742.933" cy="413.822" r="10.000" fill="#d8b763" stroke="#f4d78e" stroke-width="0.8"/>
<circle cx="742.933" cy="413.822" r="6.000" fill="#101827"/>
<circle cx="854.124" cy="595.003" r="10.000" fill="#d8b763" stroke="#f4d78e" stroke-width="0.8"/>
<circle cx="854.124" cy="595.003" r="6.000" fill="#101827"/>
<circle cx="807.464" cy="648.348" r="10.000" fill="#d8b763" stroke="#f4d78e" stroke-width="0.8"/>
<circle cx="807.464" cy="648.348" r="6.000" fill="#101827"/>
<circle cx="749.124" cy="705.003" r="10.000" fill="#d8b763" stroke="#f4d78e" stroke-width="0.8"/>
<circle cx="749.124" cy="705.003" r="6.000" fill="#101827"/>
<circle cx="704.124" cy="750.003" r="10.000" fill="#d8b763" stroke="#f4d78e" stroke-width="0.8"/>
<circle cx="704.124" cy="750.003" r="6.000" fill="#101827"/>
<circle cx="579.592" cy="490.476" r="10.000" fill="#d8b763" stroke="#f4d78e" stroke-width="0.8"/>
<circle cx="579.592" cy="490.476" r="6.000" fill="#101827"/>
<circle cx="537.933" cy="538.822" r="10.000" fill="#d8b763" stroke="#f4d78e" stroke-width="0.8"/>
<circle cx="537.933" cy="538.822" r="6.000" fill="#101827"/>
<circle cx="497.933" cy="588.822" r="10.000" fill="#d8b763" stroke="#f4d78e" stroke-width="0.8"/>
<circle cx="497.933" cy="588.822" r="6.000" fill="#101827"/>
</g>
</svg>